HIERARCHY
ROOT Hips
{
	OFFSET 0.000000 100.481300 0.000000
	CHANNELS 6 Xposition Yposition Zposition Xrotation Yrotation Zrotation
	JOINT Spine
	{
		OFFSET -0.279200 12.230698 -2.892100
		CHANNELS 3 Xrotation Yrotation Zrotation
		JOINT Spine1
		{
			OFFSET -0.325700 14.269203 -3.374200
			CHANNELS 3 Xrotation Yrotation Zrotation
			JOINT Spine2
			{
				OFFSET -0.372300 16.307602 -0.352600
				CHANNELS 3 Xrotation Yrotation Zrotation
				JOINT Neck
				{
					OFFSET -0.418800 17.814194 8.416900
					CHANNELS 3 Xrotation Yrotation Zrotation
					JOINT Head
					{
						OFFSET 0.000000 7.031097 3.806800
						CHANNELS 3 Xrotation Yrotation Zrotation
						JOINT HeadTop_End
						{
							OFFSET 0.000000 24.646606 12.978600
							CHANNELS 3 Xrotation Yrotation Zrotation
							End Site
							{
								OFFSET 0.000000 27.854965 0.000000
							}
						}
					}
				}
				JOINT LeftShoulder
				{
					OFFSET 16.952999 14.495407 -7.737500
					CHANNELS 3 Xrotation Yrotation Zrotation
					JOINT LeftArm
					{
						OFFSET 9.308998 -2.777710 0.208600
						CHANNELS 3 Xrotation Yrotation Zrotation
						JOINT LeftForeArm
						{
							OFFSET 29.972298 0.000000 0.000000
							CHANNELS 3 Xrotation Yrotation Zrotation
							JOINT LeftHand
							{
								OFFSET 26.026505 0.000000 0.000000
								CHANNELS 3 Xrotation Yrotation Zrotation
								JOINT LeftHandThumb1
								{
									OFFSET 12.240501 -7.147949 9.207150
									CHANNELS 3 Xrotation Yrotation Zrotation
									JOINT LeftHandThumb2
									{
										OFFSET 4.138618 -2.389435 2.389433
										CHANNELS 3 Xrotation Yrotation Zrotation
										JOINT LeftHandThumb3
										{
											OFFSET 2.726913 -1.574387 1.574386
											CHANNELS 3 Xrotation Yrotation Zrotation
											JOINT LeftHandThumb4
											{
												OFFSET 3.941010 -2.275345 2.275342
												CHANNELS 3 Xrotation Yrotation Zrotation
												End Site
												{
													OFFSET -0.005798 5.087799 0.009903
												}
											}
										}
									}
								}
								JOINT LeftHandIndex1
								{
									OFFSET 24.424698 -1.985611 5.953459
									CHANNELS 3 Xrotation Yrotation Zrotation
									JOINT LeftHandIndex2
									{
										OFFSET 6.426697 0.000000 0.000000
										CHANNELS 3 Xrotation Yrotation Zrotation
										JOINT LeftHandIndex3
										{
											OFFSET 5.337898 0.000000 0.000000
											CHANNELS 3 Xrotation Yrotation Zrotation
											JOINT LeftHandIndex4
											{
												OFFSET 4.409401 0.000000 0.000000
												CHANNELS 3 Xrotation Yrotation Zrotation
												End Site
												{
													OFFSET 0.000000 4.409363 0.014373
												}
											}
										}
									}
								}
								JOINT LeftHandMiddle1
								{
									OFFSET 23.810104 0.000000 0.000000
									CHANNELS 3 Xrotation Yrotation Zrotation
									JOINT LeftHandMiddle2
									{
										OFFSET 7.176498 0.000000 0.000000
										CHANNELS 3 Xrotation Yrotation Zrotation
										JOINT LeftHandMiddle3
										{
											OFFSET 6.774902 0.000000 0.000000
											CHANNELS 3 Xrotation Yrotation Zrotation
											JOINT LeftHandMiddle4
											{
												OFFSET 5.403328 0.000000 0.000000
												CHANNELS 3 Xrotation Yrotation Zrotation
												End Site
												{
													OFFSET -0.027702 5.403244 0.017414
												}
											}
										}
									}
								}
								JOINT LeftHandRing1
								{
									OFFSET 22.908401 -0.839279 -6.020567
									CHANNELS 3 Xrotation Yrotation Zrotation
									JOINT LeftHandRing2
									{
										OFFSET 6.337502 0.000000 0.000000
										CHANNELS 3 Xrotation Yrotation Zrotation
										JOINT LeftHandRing3
										{
											OFFSET 5.779297 0.000000 0.000000
											CHANNELS 3 Xrotation Yrotation Zrotation
											JOINT LeftHandRing4
											{
												OFFSET 4.965698 0.000000 0.000000
												CHANNELS 3 Xrotation Yrotation Zrotation
												End Site
												{
													OFFSET 0.000000 4.965668 0.016186
												}
											}
										}
									}
								}
								JOINT LeftHandPinky1
								{
									OFFSET 20.037003 -1.530319 -10.950146
									CHANNELS 3 Xrotation Yrotation Zrotation
									JOINT LeftHandPinky2
									{
										OFFSET 5.254700 0.000000 0.000000
										CHANNELS 3 Xrotation Yrotation Zrotation
										JOINT LeftHandPinky3
										{
											OFFSET 4.810204 0.000000 0.000000
											CHANNELS 3 Xrotation Yrotation Zrotation
											JOINT LeftHandPinky4
											{
												OFFSET 3.647202 0.000000 0.000000
												CHANNELS 3 Xrotation Yrotation Zrotation
												End Site
												{
													OFFSET 0.000000 3.647186 0.011889
												}
											}
										}
									}
								}
							}
						}
					}
				}
				JOINT RightShoulder
				{
					OFFSET -15.141001 14.495407 -7.737500
					CHANNELS 3 Xrotation Yrotation Zrotation
					JOINT RightArm
					{
						OFFSET -9.308998 -2.777710 0.208500
						CHANNELS 3 Xrotation Yrotation Zrotation
						JOINT RightForeArm
						{
							OFFSET -29.972300 0.000000 0.000000
							CHANNELS 3 Xrotation Yrotation Zrotation
							JOINT RightHand
							{
								OFFSET -26.026505 0.000000 0.000000
								CHANNELS 3 Xrotation Yrotation Zrotation
								JOINT RightHandThumb1
								{
									OFFSET -12.240601 -7.148026 9.207092
									CHANNELS 3 Xrotation Yrotation Zrotation
									JOINT RightHandThumb2
									{
										OFFSET -4.138618 -2.389435 2.389433
										CHANNELS 3 Xrotation Yrotation Zrotation
										JOINT RightHandThumb3
										{
											OFFSET -2.726974 -1.574417 1.574421
											CHANNELS 3 Xrotation Yrotation Zrotation
											JOINT RightHandThumb4
											{
												OFFSET -3.941010 -2.275345 2.275343
												CHANNELS 3 Xrotation Yrotation Zrotation
												End Site
												{
													OFFSET 0.005814 5.087799 0.009927
												}
											}
										}
									}
								}
								JOINT RightHandIndex1
								{
									OFFSET -24.424698 -1.985657 5.953444
									CHANNELS 3 Xrotation Yrotation Zrotation
									JOINT RightHandIndex2
									{
										OFFSET -6.426697 0.000000 0.000000
										CHANNELS 3 Xrotation Yrotation Zrotation
										JOINT RightHandIndex3
										{
											OFFSET -5.337898 0.000000 0.000000
											CHANNELS 3 Xrotation Yrotation Zrotation
											JOINT RightHandIndex4
											{
												OFFSET -4.409401 0.000000 0.000000
												CHANNELS 3 Xrotation Yrotation Zrotation
												End Site
												{
													OFFSET 0.000000 4.409363 0.014408
												}
											}
										}
									}
								}
								JOINT RightHandMiddle1
								{
									OFFSET -23.810097 0.000000 0.000000
									CHANNELS 3 Xrotation Yrotation Zrotation
									JOINT RightHandMiddle2
									{
										OFFSET -7.176498 0.000000 0.000000
										CHANNELS 3 Xrotation Yrotation Zrotation
										JOINT RightHandMiddle3
										{
											OFFSET -6.774902 0.000000 0.000000
											CHANNELS 3 Xrotation Yrotation Zrotation
											JOINT RightHandMiddle4
											{
												OFFSET -5.403328 0.000000 0.000000
												CHANNELS 3 Xrotation Yrotation Zrotation
												End Site
												{
													OFFSET 0.027702 5.403244 0.017457
												}
											}
										}
									}
								}
								JOINT RightHandRing1
								{
									OFFSET -22.908302 -0.839325 -6.020576
									CHANNELS 3 Xrotation Yrotation Zrotation
									JOINT RightHandRing2
									{
										OFFSET -6.337502 0.000000 0.000000
										CHANNELS 3 Xrotation Yrotation Zrotation
										JOINT RightHandRing3
										{
											OFFSET -5.779297 0.000000 0.000000
											CHANNELS 3 Xrotation Yrotation Zrotation
											JOINT RightHandRing4
											{
												OFFSET -4.965698 0.000000 0.000000
												CHANNELS 3 Xrotation Yrotation Zrotation
												End Site
												{
													OFFSET 0.000000 4.965668 0.016226
												}
											}
										}
									}
								}
								JOINT RightHandPinky1
								{
									OFFSET -20.037003 -1.530334 -10.950259
									CHANNELS 3 Xrotation Yrotation Zrotation
									JOINT RightHandPinky2
									{
										OFFSET -5.254700 0.000000 0.000000
										CHANNELS 3 Xrotation Yrotation Zrotation
										JOINT RightHandPinky3
										{
											OFFSET -4.810204 0.000000 0.000000
											CHANNELS 3 Xrotation Yrotation Zrotation
											JOINT RightHandPinky4
											{
												OFFSET -3.647202 0.000000 0.000000
												CHANNELS 3 Xrotation Yrotation Zrotation
												End Site
												{
													OFFSET 0.000000 3.647186 0.011917
												}
											}
										}
									}
								}
							}
						}
					}
				}
			}
		}
	}
	JOINT LeftUpLeg
	{
		OFFSET 15.427100 -6.655098 0.678600
		CHANNELS 3 Xrotation Yrotation Zrotation
		JOINT LeftLeg
		{
			OFFSET 4.081073 -39.591068 13.024000
			CHANNELS 3 Xrotation Yrotation Zrotation
			JOINT LeftFoot
			{
				OFFSET -4.081074 -37.707932 -15.979700
				CHANNELS 3 Xrotation Yrotation Zrotation
				JOINT LeftToeBase
				{
					OFFSET 5.346399 -15.068900 20.645000
					CHANNELS 3 Xrotation Yrotation Zrotation
					JOINT LeftToe_End
					{
						OFFSET 2.754700 0.931300 11.300900
						CHANNELS 3 Xrotation Yrotation Zrotation
						End Site
						{
							OFFSET 0.000000 11.669021 0.000000
						}
					}
				}
			}
		}
	}
	JOINT RightUpLeg
	{
		OFFSET -15.569500 -6.655098 0.678600
		CHANNELS 3 Xrotation Yrotation Zrotation
		JOINT RightLeg
		{
			OFFSET -4.081825 -39.591045 13.023800
			CHANNELS 3 Xrotation Yrotation Zrotation
			JOINT RightFoot
			{
				OFFSET 4.081824 -37.707954 -15.979600
				CHANNELS 3 Xrotation Yrotation Zrotation
				JOINT RightToeBase
				{
					OFFSET -5.346400 -15.068900 20.645000
					CHANNELS 3 Xrotation Yrotation Zrotation
					JOINT RightToe_End
					{
						OFFSET -2.754700 0.931300 11.300900
						CHANNELS 3 Xrotation Yrotation Zrotation
						End Site
						{
							OFFSET 0.000000 11.669021 0.000000
						}
					}
				}
			}
		}
	}
}
MOTION
Frames: 4
Frame Time: 0.033333
0.203434 28.303879 -22.082306 -40.221140 34.344209 30.054017 58.614867 8.431095 -0.893840 10.405815 0.727810 -4.286525 17.211785 -0.033978 -4.311454 -10.909643 7.243658 1.674907 -14.135443 19.589795 9.470967 -0.000002 0.000001 0.000000 -37.714580 -5.948431 0.705719 -67.499706 -16.402228 -65.691912 0.000021 -56.236615 0.000027 -123.096948 0.729911 24.319172 4.709227 9.560375 3.111986 19.473190 -1.474914 7.636925 -4.536181 -9.613108 1.492979 -0.000002 -0.000002 0.000001 -0.212815 3.933715 -36.747114 2.942145 5.078899 -60.144610 0.513676 2.400825 -24.150504 0.000001 0.000002 -0.000003 0.405920 5.507050 -52.453162 3.387152 5.308626 -65.057443 0.282018 1.797445 -17.832384 -0.000001 -0.000000 0.000004 -0.074379 5.736792 -61.061420 4.055036 5.569508 -72.094887 0.582663 2.548979 -25.748001 -0.000000 -0.000002 -0.000003 -6.565580 4.545134 -72.425215 3.299629 5.267214 -64.107814 0.175342 1.424013 -14.038883 -0.000001 -0.000002 -0.000001 -42.360546 -9.474521 -8.338963 -51.483965 46.285887 95.375409 0.000125 104.034293 -0.000156 -37.270280 -25.642559 -23.686172 8.377136 -4.904138 11.022008 21.620207 -18.183891 -18.379223 -0.702888 -49.821210 -32.535128 -0.000003 0.000002 -0.000001 -0.920037 1.683584 12.434990 0.748112 -2.533466 32.898293 0.615635 -2.316067 29.767832 0.000000 -0.000000 -0.000002 3.413066 -7.186253 51.650263 6.296804 -4.359581 110.634680 0.248703 -1.503052 18.790267 -0.000001 -0.000000 0.000000 -3.349037 -2.600428 57.010568 5.440845 -4.590899 99.698168 1.689410 -3.590701 50.382245 -0.000000 -0.000001 0.000002 -3.996434 -3.303925 64.593871 4.058837 -4.618673 82.610503 2.315551 -4.026784 59.787207 -0.000000 -0.000001 -0.000000 -89.077531 -10.307935 16.448590 112.440637 1.219239 5.237228 10.772727 -5.191827 -10.441340 0.927667 0.000012 0.000006 -0.000000 -0.000000 0.000000 62.596095 -23.650000 -106.505756 -1.662795 17.959178 148.487944 -10.475431 27.046383 -36.566606 -33.214233 -0.000009 -0.000004 -0.000000 -0.000000 -0.000001 
0.258598 28.284912 -22.081104 -40.496267 34.446563 30.305532 58.734313 8.428941 -0.893949 10.483408 0.780999 -4.407253 17.282180 -0.016489 -4.447570 -10.688943 7.168619 1.975936 -14.329419 19.740123 9.486278 -0.000002 0.000000 0.000001 -37.668848 -5.767409 0.976072 -68.692237 -17.249766 -66.596182 -0.000002 -54.459977 0.000001 -123.149363 1.179906 23.688800 4.709228 9.560379 3.111987 19.473187 -1.474912 7.636926 -4.536181 -9.613115 1.492978 -0.000001 -0.000001 -0.000002 -0.212816 3.933721 -36.747114 2.942142 5.078900 -60.144610 0.513674 2.400825 -24.150504 -0.000002 -0.000001 0.000001 0.405920 5.507051 -52.453162 3.387145 5.308629 -65.057443 0.282019 1.797446 -17.832383 -0.000002 -0.000004 0.000000 -0.074380 5.736790 -61.061413 4.055037 5.569509 -72.094887 0.582664 2.548976 -25.748000 0.000001 -0.000002 -0.000002 -6.565580 4.545137 -72.425215 3.299628 5.267214 -64.107814 0.175344 1.424014 -14.038884 0.000002 -0.000002 -0.000003 -42.282447 -9.560939 -8.062846 -51.243371 45.839018 95.116989 -0.000227 104.053766 0.000229 -37.165067 -25.784224 -23.741637 8.377137 -4.904137 11.022009 21.620207 -18.183891 -18.379219 -0.702892 -49.821206 -32.535128 -0.000001 0.000000 0.000002 -0.920037 1.683585 12.434993 0.748112 -2.533466 32.898293 0.615635 -2.316068 29.767832 0.000000 0.000000 -0.000001 3.413066 -7.186253 51.650266 6.296804 -4.359580 110.634680 0.248704 -1.503051 18.790269 0.000000 0.000000 -0.000000 -3.349037 -2.600428 57.010571 5.440845 -4.590900 99.698168 1.689410 -3.590701 50.382245 0.000001 -0.000000 -0.000000 -3.996434 -3.303925 64.593878 4.058837 -4.618673 82.610503 2.315551 -4.026783 59.787207 -0.000000 -0.000001 0.000004 -89.204511 -9.818744 16.245793 112.493639 1.457459 5.438326 10.832851 -5.261016 -10.193740 0.928681 0.000044 0.000007 0.000000 -0.000003 -0.000000 64.183732 -22.993053 -104.773606 -1.561867 18.249374 148.262602 -12.009002 27.252889 -36.986666 -33.331593 -0.000016 -0.000004 0.000000 -0.000002 0.000000 
0.289570 28.271446 -22.083010 -40.690056 34.524847 30.458423 58.819629 8.431032 -0.875597 10.550074 0.837884 -4.506721 17.341464 0.009932 -4.563176 -10.600059 7.135529 2.138734 -14.527206 19.863812 9.601941 -0.000001 -0.000000 -0.000000 -37.640773 -5.602042 1.111894 -69.783162 -17.952758 -67.411372 0.000013 -52.996462 0.000013 -123.085582 1.603803 23.224926 4.709228 9.560375 3.111986 19.473190 -1.474906 7.636923 -4.536180 -9.613110 1.492977 0.000000 0.000002 -0.000000 -0.212815 3.933715 -36.747114 2.942143 5.078900 -60.144610 0.513680 2.400826 -24.150500 -0.000003 -0.000000 0.000001 0.405920 5.507047 -52.453158 3.387147 5.308622 -65.057443 0.282018 1.797449 -17.832381 -0.000000 -0.000001 0.000001 -0.074379 5.736789 -61.061420 4.055031 5.569510 -72.094887 0.582658 2.548976 -25.748001 -0.000001 -0.000003 0.000002 -6.565578 4.545129 -72.425209 3.299633 5.267216 -64.107821 0.175344 1.424016 -14.038884 -0.000000 -0.000001 -0.000000 -42.238470 -9.614815 -7.909012 -51.013693 45.534894 94.788054 0.000019 104.146246 -0.000018 -37.226153 -25.786698 -23.963242 8.377136 -4.904137 11.022007 21.620202 -18.183888 -18.379221 -0.702890 -49.821203 -32.535128 -0.000004 -0.000001 0.000002 -0.920038 1.683585 12.434995 0.748112 -2.533467 32.898293 0.615635 -2.316067 29.767826 0.000000 -0.000000 -0.000000 3.413066 -7.186254 51.650263 6.296804 -4.359580 110.634680 0.248703 -1.503052 18.790267 0.000001 -0.000000 0.000000 -3.349038 -2.600428 57.010568 5.440845 -4.590900 99.698161 1.689410 -3.590700 50.382238 -0.000000 0.000000 0.000001 -3.996435 -3.303925 64.593871 4.058837 -4.618673 82.610510 2.315550 -4.026784 59.787200 0.000000 -0.000000 0.000002 -89.305413 -9.531263 16.065641 112.523808 1.620230 5.579915 10.898302 -5.296229 -10.061383 0.927429 -0.000001 -0.000000 0.000000 0.000000 -0.000000 65.376549 -22.441949 -103.352319 -1.466921 18.489744 148.091028 -13.176909 27.483327 -37.413130 -33.410277 0.000002 0.000011 -0.000000 -0.000003 -0.000000 
0.312260 28.259857 -22.085979 -40.856122 34.594850 30.577708 58.897964 8.422363 -0.852076 10.614159 0.874218 -4.581666 17.399789 0.023863 -4.648899 -10.556285 7.116763 2.254385 -14.727105 19.978192 9.752298 -0.000001 0.000000 -0.000002 -37.618558 -5.441965 1.201713 -70.819254 -18.527061 -68.094923 0.000025 -51.711161 0.000019 -122.963581 2.011052 22.836078 4.709227 9.560375 3.111987 19.473189 -1.474912 7.636925 -4.536179 -9.613110 1.492977 -0.000000 -0.000001 0.000002 -0.212815 3.933715 -36.747114 2.942143 5.078898 -60.144610 0.513680 2.400825 -24.150504 0.000003 0.000000 -0.000001 0.405920 5.507048 -52.453162 3.387149 5.308624 -65.057443 0.282018 1.797447 -17.832376 -0.000002 -0.000001 0.000004 -0.074380 5.736783 -61.061420 4.055035 5.569510 -72.094887 0.582667 2.548978 -25.748003 0.000001 0.000000 -0.000001 -6.565579 4.545132 -72.425215 3.299633 5.267215 -64.107814 0.175346 1.424011 -14.038884 0.000000 0.000000 -0.000003 -42.206116 -9.657651 -7.796915 -50.945199 45.299806 94.570478 0.000014 104.150515 -0.000034 -37.298632 -25.676223 -24.141058 8.377137 -4.904137 11.022009 21.620207 -18.183890 -18.379223 -0.702888 -49.821210 -32.535125 -0.000002 -0.000001 -0.000001 -0.920037 1.683585 12.434990 0.748112 -2.533466 32.898293 0.615636 -2.316066 29.767829 -0.000000 0.000000 -0.000001 3.413066 -7.186255 51.650263 6.296805 -4.359580 110.634673 0.248704 -1.503051 18.790267 0.000000 -0.000000 0.000000 -3.349037 -2.600428 57.010568 5.440845 -4.590900 99.698168 1.689410 -3.590700 50.382245 0.000000 0.000000 -0.000000 -3.996435 -3.303926 64.593871 4.058838 -4.618673 82.610510 2.315550 -4.026782 59.787207 0.000000 0.000001 0.000001 -89.397129 -9.312478 15.893341 112.545972 1.757099 5.701083 10.965703 -5.319873 -9.968468 0.926445 0.000002 -0.000004 -0.000000 -0.000002 -0.000000 66.424751 -21.907943 -102.050089 -1.370329 18.717869 147.934138 -14.229360 27.718815 -37.819229 -33.475734 -0.000002 0.000002 -0.000001 -0.000002 -0.000000 
